<svg xmlns="http://www.w3.org/2000/svg" viewBox="0 0 1031.38 1031.38"><defs><style>.cls-1{fill:#3bd9ea;}.cls-2{fill:#fff;}</style></defs><g id="Layer_2" data-name="Layer 2"><g id="Layer_1-2" data-name="Layer 1"><rect class="cls-1" width="1031.38" height="1031.38" rx="166.33"/><path class="cls-2" d="M815.08,515.58c0,165.36-134,299.56-299.34,299.56a38,38,0,0,1-5.11-.22A298.29,298.29,0,0,1,273.16,691.18,290,290,0,0,1,232.88,614a294.29,294.29,0,0,1-16.47-98.37A287.44,287.44,0,0,1,218,484.42v-.22a273.46,273.46,0,0,1,5.34-33.38c1.78-7.57,3.56-14.91,5.79-22.26,2.22-7.12,4.67-14.24,7.34-20.92a1.16,1.16,0,0,1,.44-.89,217.13,217.13,0,0,1,8.91-20.7c3.11-6.67,6.67-13.35,10.46-19.8,0-.23.22-.45.22-.67,3.78-6.23,7.57-12.46,11.57-18.47,4.45-6.24,8.9-12.24,13.58-18.25,3.11-3.79,6.45-7.57,9.57-11.13a5.16,5.16,0,0,1,1.56-1.56,64,64,0,0,1,6.45-7.12c.22-.22.22-.44.44-.44,4-4.23,8.24-8.46,12.69-12.47,2.67-2.45,5.56-5.12,8.46-7.57a288.73,288.73,0,0,1,55.64-37.83c3.33-1.78,6.67-3.56,10-5.12,3.78-1.78,7.57-3.56,11.57-5.34,3.12-1.33,6.23-2.67,9.35-3.78,2.45-.89,4.67-1.78,7.12-2.67,3.79-1.34,7.57-2.67,11.35-3.79,4-1.33,8.24-2.44,12.24-3.56,4.23-1.11,8.24-2.22,12.47-3.11,7.79-1.78,15.8-3.12,23.81-4.23h.44l80.12-.22c5.57.66,11.13,1.55,16.47,2.67a186.13,186.13,0,0,1,19.36,4.22c5.12,1.34,10.24,2.68,15.36,4.23l2,.67c6.9,2.23,13.8,4.9,20.48,7.57h.22c6.9,2.89,13.58,6,20.25,9.34s13.14,6.9,19.59,10.69,12.68,7.79,18.69,12c6,49.4,3.56,79.67-5.56,97.47a38.54,38.54,0,0,1-4.9,7.79,10.78,10.78,0,0,1-1.55,1.78c-1.34,1.34-2.68,2.67-4,3.79a20.28,20.28,0,0,1-4.45,3.11c-18.92,11.58-48.07,7.35-84.13,3.12-21.59-2.45-45.62-5.12-71.21-4.23-122,4-123.08,82.35-123.08,84.79a145,145,0,0,0-.66,16.92c0,4,.22,8,.44,12,.22,3.34.45,6.68.67,9.8a179.6,179.6,0,0,0,4.45,24.7c.89,3.56,1.78,6.9,2.89,10.46A114.43,114.43,0,0,0,400,553.19c.89,2.45,1.78,4.67,2.67,6.9a189.31,189.31,0,0,0,12.24,24.26c1.78,2.89,3.56,5.79,5.56,8.68,1.78,2.67,3.56,5.34,5.56,7.79a157.51,157.51,0,0,0,16.7,19.8,107.53,107.53,0,0,0,10.23,10c4.23,3.78,8.46,7.34,12.91,10.68,0,0,42.29,45.85-29.15,76.34a7.23,7.23,0,0,0,1.78.44c.22.23.67.23.89.45a3.86,3.86,0,0,1,1.56.22c.22,0,.22.22.44.22,2.45.45,5.79,1.34,9.79,1.78,1.78.23,3.56.67,5.57.9,1.11,0,2.45.44,3.78.44C500.39,726.34,577,719.88,587,611.5c7.12-79,69.66-122,126-144.88a360,360,0,0,1,60.31-18.7,287.7,287.7,0,0,1,32.71-6A298.26,298.26,0,0,1,815.08,515.58Z"/><path class="cls-2" d="M465.84,641.22s42.23,46-29.21,76.49a13.61,13.61,0,0,0,2,.42,19.93,19.93,0,0,0,2.31.74c-7.67-1-121-19.23-208.14-105a298.35,298.35,0,0,1-16.5-98.24,304.43,304.43,0,0,1,1.58-31.21v-.21a269.63,269.63,0,0,1,5.46-33.41C250,329.91,350.05,236.29,474.45,219.17c-157.7,108-106.43,268.45-72,340.42.11.1.11.31.32.52a183.68,183.68,0,0,0,19.54,35.72l.63.95A195.36,195.36,0,0,0,465.84,641.22Z"/><path class="cls-2" d="M687.33,270.33q-9-6.34-18.69-12c-6.45-3.79-12.91-7.35-19.59-10.69s-13.35-6.45-20.25-9.34h-.22c-6.68-2.67-13.58-5.34-20.48-7.57l-2-.67c-5.12-1.55-10.24-2.89-15.36-4.23a186.13,186.13,0,0,0-19.36-4.22c-5.34-1.12-10.9-2-16.47-2.67a280.75,280.75,0,0,0-39.17-2.68,276.38,276.38,0,0,0-40.95,2.9h-.44C316.78,327.08,368,487.54,402.46,559.65c-.89-2.23-1.78-4.23-2.44-6.46a114.43,114.43,0,0,1-3.79-11.35c-1.11-3.34-2-6.9-2.89-10.46a179.6,179.6,0,0,1-4.45-24.7c-.22-3.12-.67-6.46-.67-9.8-.22-4-.44-8-.44-12a145,145,0,0,1,.66-16.92c0-2.44,1.12-80.78,123.08-84.79h5.34c23.59-.45,45.84,2,65.87,4.23,36.06,4.23,65.21,8.46,84.13-3.12a20.28,20.28,0,0,0,4.45-3.11c1.33-1.12,2.67-2.45,4-3.79a10.78,10.78,0,0,0,1.55-1.78,38.54,38.54,0,0,0,4.9-7.79C690.89,350,693.34,319.73,687.33,270.33Z"/></g></g></svg>