<svg xmlns="http://www.w3.org/2000/svg" viewBox="0 0 3379.35 598.89"><defs><style>.cls-1{fill:#0a0a0f;}.cls-2{fill:#06b6d4;}.cls-3{fill:#3bd9ea;}.cls-4{fill:#6cf8ff;}</style></defs><g id="Layer_2" data-name="Layer 2"><g id="Layer_1-2" data-name="Layer 1"><path class="cls-1" d="M825.38,482.19q-51.23-27.51-80.5-76.32t-29.3-110.39q0-61.55,29.3-110.39t80.5-76.35Q876.56,81.23,940.5,81.23q53.82,0,97.35,18.93a195.07,195.07,0,0,1,73.09,54.44l-61.55,56.84q-42-48.56-104.17-48.54-38.47,0-68.66,16.87a120,120,0,0,0-47,47Q812.64,257,812.64,295.48t16.89,68.66a120.08,120.08,0,0,0,47,47.05q30.2,16.86,68.66,16.87,62.16,0,104.17-49.14l61.55,56.83a191.87,191.87,0,0,1-73.38,55q-43.81,18.95-97.67,19Q876.55,509.73,825.38,482.19Z"/><path class="cls-1" d="M1189.38,486.35q-40-21-62.45-58.29t-22.49-84.64q0-47.35,22.49-84.65t62.45-58.29q39.93-21,90.23-21t90,21q39.65,21,62.14,58.29t22.49,84.65q0,47.34-22.49,84.64t-62.14,58.29q-39.67,21-90,21T1189.38,486.35Zm148.55-78.72q22.75-24,22.77-64.21t-22.77-64.22q-22.8-24-58.32-24t-58.59,24q-23.08,24-23.08,64.22T1221,407.63q23.09,24,58.59,24T1337.93,407.63Z"/><path class="cls-1" d="M1775.3,215q36.4,35.51,36.4,105.34v182.3h-92.33V334.54q0-37.89-16.58-56.53t-47.92-18.63q-34.95,0-55.64,21.6t-20.71,64.21V502.62h-92.35V184.2h88.2v37.3q18.35-20.12,45.57-31.08t59.77-10.95Q1738.92,179.47,1775.3,215Z"/><path class="cls-1" d="M2193.45,63.47V502.62h-88.19V465.94q-34.34,41.43-99.43,41.42-45,0-81.38-20.12t-57.11-57.42q-20.73-37.27-20.71-86.4T1867.34,257q20.7-37.29,57.11-57.42t81.38-20.12q61,0,95.3,38.46V63.47ZM2079.81,407.63q23.08-24,23.08-64.21t-23.08-64.22q-23.08-24-58-24-35.5,0-58.59,24t-23.09,64.22q0,40.23,23.09,64.21t58.59,24Q2056.72,431.6,2079.81,407.63Z"/><path class="cls-1" d="M2569.86,184.2V502.62h-87.61V464.74a122,122,0,0,1-43.79,31.67,137.83,137.83,0,0,1-55,10.95q-62.76,0-99.43-36.1t-36.71-107.12V184.2h92.35V350.51q0,77,64.5,77,33.12,0,53.27-21.6t20.13-64.23V184.2Z"/><path class="cls-1" d="M2630.82,125q-16-14.79-16-36.71t16-36.68q16-14.81,41.43-14.8T2713.67,51q16,14.22,16,35.51,0,23.08-16,38.17t-41.42,15.1Q2646.78,139.82,2630.82,125Zm-4.73,59.18h92.32V502.62h-92.32Z"/><path class="cls-1" d="M2980,487.24q-13.62,10.06-33.45,15.08a169.29,169.29,0,0,1-41.73,5q-56.82,0-87.89-29t-31.08-85.22V262.34h-49.12v-71h49.12V113.76h92.35v77.55h79.31v71h-79.31V392q0,20.12,10.34,31.05t29.3,11q21.91,0,37.3-11.85Z"/><path class="cls-1" d="M3133.12,55.71h-17.54l-76.92,168.21h18.53l16.45-36.61,3.71-8.32,6.51-14.37,8.86-19.88,31.54-70.5,35,78.27,5.42,12.11,6.42,14.37,7.5,16.64,12.75,28.29H3210Z"/><path class="cls-1" d="M3225.93,55.69h17.78V224h-17.78Z"/><path class="cls-2" d="M598.78,299.34c0,165.35-134,299.55-299.34,299.55a38.19,38.19,0,0,1-5.12-.22A298.26,298.26,0,0,1,56.86,474.93,290,290,0,0,1,16.58,397.7,294.23,294.23,0,0,1,.11,299.34a287.31,287.31,0,0,1,1.56-31.16V268A274.08,274.08,0,0,1,7,234.57c1.78-7.56,3.56-14.91,5.78-22.25,2.23-7.12,4.68-14.25,7.35-20.92a1.15,1.15,0,0,1,.44-.89,216,216,0,0,1,8.9-20.7C32.6,163.13,36.16,156.46,40,150c0-.22.22-.44.22-.67,3.78-6.23,7.56-12.46,11.57-18.47,4.45-6.23,8.9-12.24,13.58-18.25,3.11-3.78,6.45-7.56,9.57-11.13a5.21,5.21,0,0,1,1.55-1.55A65.21,65.21,0,0,1,82.9,92.8c.22-.22.22-.44.44-.44,4-4.23,8.24-8.46,12.69-12.46,2.67-2.45,5.56-5.12,8.46-7.57A288.21,288.21,0,0,1,160.12,34.5c3.34-1.78,6.68-3.56,10-5.12,3.78-1.78,7.57-3.56,11.57-5.34,3.12-1.34,6.23-2.67,9.35-3.79,2.45-.89,4.67-1.78,7.12-2.67,3.78-1.33,7.57-2.67,11.35-3.78,4-1.34,8.24-2.45,12.24-3.56C226,9.12,230,8,234.23,7.12,242,5.34,250,4,258.05,2.89h.44l80.12-.22c5.57.67,11.13,1.56,16.47,2.67a186.16,186.16,0,0,1,19.36,4.23c5.12,1.33,10.24,2.67,15.36,4.23l2,.67c6.9,2.22,13.8,4.89,20.48,7.56h.22c6.9,2.9,13.58,6,20.25,9.35s13.13,6.9,19.59,10.68S465,49.85,471,54.08c6,49.41,3.56,79.68-5.56,97.48a39.11,39.11,0,0,1-4.9,7.79,10.8,10.8,0,0,1-1.56,1.78c-1.33,1.33-2.67,2.67-4,3.78a20.22,20.22,0,0,1-4.45,3.12c-18.92,11.57-48.07,7.34-84.13,3.11-21.59-2.44-45.62-5.11-71.22-4.22-122,4-123.07,82.34-123.07,84.79a142.72,142.72,0,0,0-.67,16.91c0,4,.23,8,.45,12,.22,3.34.44,6.68.67,9.79A178.25,178.25,0,0,0,177,315.14c.89,3.56,1.78,6.9,2.89,10.46A115.21,115.21,0,0,0,183.71,337c.9,2.44,1.79,4.67,2.67,6.9a191.21,191.21,0,0,0,12.25,24.25c1.78,2.9,3.56,5.79,5.56,8.68,1.78,2.67,3.56,5.34,5.56,7.79a158.37,158.37,0,0,0,16.69,19.81,110.08,110.08,0,0,0,10.24,10c4.23,3.78,8.46,7.34,12.91,10.68,0,0,42.29,45.84-29.15,76.33a6.82,6.82,0,0,0,1.78.45c.22.22.66.22.89.44a3.64,3.64,0,0,1,1.55.23c.23,0,.23.22.45.22,2.45.44,5.79,1.33,9.79,1.78,1.78.22,3.56.67,5.57.89,1.11,0,2.44.44,3.78.44,39.84,4.23,116.39-2.22,126.41-110.6,7.12-79,69.66-122,126-144.89a361.17,361.17,0,0,1,60.32-18.69,287.7,287.7,0,0,1,32.71-6A298.14,298.14,0,0,1,598.78,299.34Z"/><path class="cls-3" d="M249.54,425s42.23,46-29.21,76.49a13.62,13.62,0,0,0,2,.42,20.79,20.79,0,0,0,2.31.73c-7.67-1.05-121-19.22-208.13-105A298.31,298.31,0,0,1,0,299.42a304.24,304.24,0,0,1,1.58-31.2V268A269,269,0,0,1,7,234.6C33.73,113.66,133.75,20.05,258.15,2.92c-157.71,108-106.43,268.45-72,340.42.11.11.11.32.31.53A184.31,184.31,0,0,0,206,379.59l.63,1A195.56,195.56,0,0,0,249.54,425Z"/><path class="cls-4" d="M471,54.08q-9-6.34-18.69-12c-6.46-3.78-12.91-7.34-19.59-10.68S419.4,24.93,412.5,22h-.22c-6.68-2.67-13.58-5.34-20.48-7.56l-2-.67c-5.12-1.56-10.24-2.9-15.36-4.23a186.16,186.16,0,0,0-19.36-4.23c-5.34-1.11-10.9-2-16.47-2.67A282.29,282.29,0,0,0,299.44,0a277.64,277.64,0,0,0-40.95,2.89h-.44C100.48,110.83,151.67,271.29,186.16,343.4c-.89-2.22-1.78-4.23-2.45-6.45a115.21,115.21,0,0,1-3.78-11.35c-1.11-3.34-2-6.9-2.89-10.46a178.25,178.25,0,0,1-4.45-24.71c-.23-3.11-.67-6.45-.67-9.79-.22-4-.45-8-.45-12a142.72,142.72,0,0,1,.67-16.91c0-2.45,1.11-80.79,123.07-84.79h5.35c23.59-.45,45.84,2,65.87,4.22,36.06,4.23,65.21,8.46,84.13-3.11a20.22,20.22,0,0,0,4.45-3.12c1.33-1.11,2.67-2.45,4-3.78a10.8,10.8,0,0,0,1.56-1.78,39.11,39.11,0,0,0,4.9-7.79C474.59,133.76,477,103.49,471,54.08Z"/><circle class="cls-3" cx="3333.85" cy="175.61" r="45.51"/></g></g></svg>